# xmcd
# 
# Track frame offsets:
#     150
#     18970
#     32927
#     52140
#     71687
#     86585
#     105240
#     109842
#     132285
#     155010
#     171495
#     191332
#     209940
#     229132
#     246787
#     282522
#     303232
#     320897
# 
# Disc length: 4617
# 
# Revision: 1
# Processed by: cddbd v1.5.2PL0 Copyright (c) Steve Scherf et al.
# Submitted via: fre:ac v1.0.17
# 
DISCID=0f120712
DTITLE=柴田恭兵 - ゴールデンベスト
DYEAR=1987
DGENRE=JPop
TTITLE0=RUNNNING SHOT
TTITLE1=WAR
TTITLE2=MISS YOU
TTITLE3=FUGITIVE
TTITLE4=DONT WORRY
TTITLE5=TRUTH
TTITLE6=ヘイ　ブラザー
TTITLE7=横浜　DAYBREAK
TTITLE8=AGAIN
TTITLE9=BREAK OUT
TTITLE10=CINDERELLA LIBERTY
TTITLE11=一枚の写真
TTITLE12=SHAKE YOU TO BITS
TTITLE13=いつか雨に撃たれて
TTITLE14=そしてこの夜に
TTITLE15=RETURN
TTITLE16=GET DOWN
TTITLE17=BABY LOVE
EXTD=YEAR: 1987
EXTT0=
EXTT1=
EXTT2=
EXTT3=
EXTT4=
EXTT5=
EXTT6=
EXTT7=
EXTT8=
EXTT9=
EXTT10=
EXTT11=
EXTT12=
EXTT13=
EXTT14=
EXTT15=
EXTT16=
EXTT17=
PLAYORDER=
